<?xml version="1.0" encoding="UTF-8"?>
<svg xmlns="http://www.w3.org/2000/svg" viewBox="0 0 520 640" role="img" aria-labelledby="boss-title boss-desc">
  <title id="boss-title">BOSS low poly persona</title>
  <desc id="boss-desc">A playful low poly flat vector character for the BOSS personality.</desc>
  <ellipse cx="260" cy="574" rx="108" ry="22" fill="#cfd5df" opacity="0.72" />
  <ellipse cx="260" cy="574" rx="78" ry="14" fill="#b8c1cd" opacity="0.45" />
  <rect x="344" y="248" width="82" height="118" fill="#ffffff" rx="18" opacity="0.92" /><rect x="360" y="270" width="48" height="10" fill="#98efff" rx="5" /><rect x="360" y="292" width="30" height="10" fill="#abf2ff" rx="5" /><rect x="360" y="314" width="58" height="10" fill="#283a50" rx="5" opacity="0.2" /><rect x="118" y="198" width="22" height="22" fill="#abf2ff" rx="6" /><rect x="146" y="198" width="22" height="22" fill="#98efff" rx="6" /><rect x="118" y="226" width="22" height="22" fill="#98efff" rx="6" /><rect x="146" y="226" width="22" height="22" fill="#abf2ff" rx="6" />
  <g transform="translate(238 372) rotate(-6) scale(1 1)"><polygon points="0,0 24,-2 28,64 10,114 -8,112 -12,58" fill="#324964" /><polygon points="10,58 28,56 30,114 14,122 6,90" fill="#4f627a" /><polygon points="2,114 32,112 46,124 26,136 -4,132" fill="#e5eef5" /></g>
  <g transform="translate(282 372) rotate(8) scale(-1 1)"><polygon points="0,0 24,-2 28,64 10,114 -8,112 -12,58" fill="#324964" /><polygon points="10,58 28,56 30,114 14,122 6,90" fill="#4f627a" /><polygon points="2,114 32,112 46,124 26,136 -4,132" fill="#e5eef5" /></g>
  <g transform="translate(210 274) rotate(-8) scale(1 1)"><polygon points="0,0 18,-8 38,44 22,54 -4,18" fill="#2a9cb8" /><polygon points="20,42 38,36 58,90 36,102 18,60" fill="#50aec5" /><polygon points="48,88 62,84 72,100 58,112 42,106" fill="#e0b796" /></g>
  <g transform="translate(260 286) rotate(2)"><polygon points="-62,-52 44,-58 70,18 24,112 -52,80 -72,14" fill="#2a9cb8" /><polygon points="-62,-52 -8,-58 8,86 -52,80 -72,14" fill="#24869e" /><polygon points="-10,-58 44,-58 70,18 24,112 8,86" fill="#50aec5" /><polygon points="-28,-26 18,-42 34,8 -18,22" fill="#92e5f5" /><polygon points="-18,-62 18,-62 12,-46 -10,-46" fill="#217b91" /></g>
  <g transform="translate(308 274) rotate(28) scale(-1 1)"><polygon points="0,0 18,-8 38,44 22,54 -4,18" fill="#2a9cb8" /><polygon points="20,42 38,36 58,90 36,102 18,60" fill="#50aec5" /><polygon points="48,88 62,84 72,100 58,112 42,106" fill="#f3c7a3" /></g>
  <polygon points="238,214 282,214 286,248 238,248" fill="#e0b796" />
  <g transform="translate(260 160) rotate(2)"><polygon points="-48,-22 -26,-58 18,-62 48,-26 42,26 6,60 -34,48 -54,8" fill="#f3c7a3" /><polygon points="-44,-12 -22,-50 0,-48 -2,52 -34,46 -50,10" fill="#e0b796" /><polygon points="0,-48 18,-62 48,-26 42,26 6,60 -2,52" fill="#f4cdac" /><polygon points="-54,-6 -26,-62 18,-70 52,-40 58,2 26,-4 2,16 -18,10" fill="#1f4864" /><polygon points="6,-66 40,-40 22,-6 6,0" fill="#41b8d7" /><circle cx="-16" cy="-2" r="4.2" fill="#1b2742" /><circle cx="18" cy="-2" r="4.2" fill="#1b2742" /><polygon points="2,10 10,22 -4,24" fill="#c7a386" /><polygon points="-10,34 12,32 6,40 -6,40" fill="#b9977c" /></g>
</svg>
