<?xml version="1.0" encoding="UTF-8"?>
<svg xmlns="http://www.w3.org/2000/svg" viewBox="0 0 520 640" role="img" aria-labelledby="cling-title cling-desc">
  <title id="cling-title">CLING low poly persona</title>
  <desc id="cling-desc">A playful low poly flat vector character for the CLING personality.</desc>
  <ellipse cx="260" cy="574" rx="108" ry="22" fill="#cfd5df" opacity="0.72" />
  <ellipse cx="260" cy="574" rx="78" ry="14" fill="#b8c1cd" opacity="0.45" />
  <rect x="332" y="252" width="52" height="84" fill="#ffffff" rx="12" opacity="0.86" /><circle cx="360" cy="270" r="5" fill="#53e6ff" /><rect x="344" y="286" width="26" height="8" fill="#72ebff" rx="4" /><rect x="344" y="302" width="18" height="8" fill="#53e6ff" rx="4" /><circle cx="398" cy="210" r="12" fill="#53e6ff" opacity="0.24" /><circle cx="398" cy="210" r="6" fill="#53e6ff" /><polygon points="420,234 434,248 420,262 406,248" fill="#72ebff" />
  <g transform="translate(234 370) rotate(-8) scale(1 1)"><polygon points="0,0 24,-2 28,64 10,114 -8,112 -12,58" fill="#31446d" /><polygon points="10,58 28,56 30,114 14,122 6,90" fill="#4e5e81" /><polygon points="2,114 32,112 46,124 26,136 -4,132" fill="#e5ebf6" /></g>
  <g transform="translate(280 372) rotate(10) scale(-1 1)"><polygon points="0,0 24,-2 28,64 10,114 -8,112 -12,58" fill="#31446d" /><polygon points="10,58 28,56 30,114 14,122 6,90" fill="#4e5e81" /><polygon points="2,114 32,112 46,124 26,136 -4,132" fill="#e5ebf6" /></g>
  <g transform="translate(210 270) rotate(-62) scale(1 1)"><polygon points="0,0 18,-8 38,44 22,54 -4,18" fill="#5d8bff" /><polygon points="20,42 38,36 58,90 36,102 18,60" fill="#7aa0ff" /><polygon points="48,88 62,84 72,100 58,112 42,106" fill="#e0b89c" /></g>
  <g transform="translate(260 286) rotate(-6)"><polygon points="-62,-52 44,-58 70,18 24,112 -52,80 -72,14" fill="#5d8bff" /><polygon points="-62,-52 -8,-58 8,86 -52,80 -72,14" fill="#5078db" /><polygon points="-10,-58 44,-58 70,18 24,112 8,86" fill="#7aa0ff" /><polygon points="-8,-60 12,-58 8,96 -12,96" fill="#50ddf5" /><polygon points="-18,-62 18,-62 12,-46 -10,-46" fill="#4a6ec9" /></g>
  <g transform="translate(310 268) rotate(20) scale(-1 1)"><polygon points="0,0 18,-8 38,44 22,54 -4,18" fill="#5d8bff" /><polygon points="20,42 38,36 58,90 36,102 18,60" fill="#7aa0ff" /><polygon points="48,88 62,84 72,100 58,112 42,106" fill="#f4c8aa" /></g>
  <polygon points="238,214 282,214 286,248 238,248" fill="#e0b89c" />
  <g transform="translate(260 160) rotate(-4)"><polygon points="-48,-22 -26,-58 18,-62 48,-26 42,26 6,60 -34,48 -54,8" fill="#f4c8aa" /><polygon points="-44,-12 -22,-50 0,-48 -2,52 -34,46 -50,10" fill="#e0b89c" /><polygon points="0,-48 18,-62 48,-26 42,26 6,60 -2,52" fill="#f5ceb3" /><polygon points="-56,-8 -36,-58 4,-74 44,-60 58,-10 20,-26 -18,-30" fill="#37518e" /><polygon points="-4,-70 34,-58 16,-16 -4,-26" fill="#5d8bff" /><circle cx="-16" cy="-2" r="4.2" fill="#1b2742" /><circle cx="18" cy="-2" r="4.2" fill="#1b2742" /><polygon points="2,10 10,22 -4,24" fill="#c8a48b" /><polygon points="-10,34 12,32 6,40 -6,40" fill="#b99881" /></g>
</svg>
