<?xml version="1.0" encoding="UTF-8"?>
<svg xmlns="http://www.w3.org/2000/svg" viewBox="0 0 520 640" role="img" aria-labelledby="ctrl-title ctrl-desc">
  <title id="ctrl-title">CTRL low poly persona</title>
  <desc id="ctrl-desc">A playful low poly flat vector character for the CTRL personality.</desc>
  <ellipse cx="260" cy="574" rx="108" ry="22" fill="#cfd5df" opacity="0.72" />
  <ellipse cx="260" cy="574" rx="78" ry="14" fill="#b8c1cd" opacity="0.45" />
  <polygon points="354,286 394,274 430,294 430,344 394,388 354,348" fill="#b7fbff" /><polygon points="366,296 394,288 418,302 418,338 394,368 366,342" fill="#c4fcff" />
  <g transform="translate(238 374) rotate(-2) scale(1 1)"><polygon points="0,0 24,-2 28,64 10,114 -8,112 -12,58" fill="#24596d" /><polygon points="10,58 28,56 30,114 14,122 6,90" fill="#437081" /><polygon points="2,114 32,112 46,124 26,136 -4,132" fill="#d9eef2" /></g>
  <g transform="translate(282 376) rotate(4) scale(-1 1)"><polygon points="0,0 24,-2 28,64 10,114 -8,112 -12,58" fill="#24596d" /><polygon points="10,58 28,56 30,114 14,122 6,90" fill="#437081" /><polygon points="2,114 32,112 46,124 26,136 -4,132" fill="#d9eef2" /></g>
  <g transform="translate(214 274) rotate(-12) scale(1 1)"><polygon points="0,0 18,-8 38,44 22,54 -4,18" fill="#2db8c9" /><polygon points="20,42 38,36 58,90 36,102 18,60" fill="#53c5d3" /><polygon points="48,88 62,84 72,100 58,112 42,106" fill="#deb698" /></g>
  <g transform="translate(260 286) rotate(4)"><polygon points="-62,-52 44,-58 70,18 24,112 -52,80 -72,14" fill="#2db8c9" /><polygon points="-62,-52 -8,-58 8,86 -52,80 -72,14" fill="#279ead" /><polygon points="-10,-58 44,-58 70,18 24,112 8,86" fill="#53c5d3" /><polygon points="-34,-38 0,-58 34,-38 18,18 -18,18" fill="#b0f1f5" /><polygon points="-18,-62 18,-62 12,-46 -10,-46" fill="#24919f" /></g>
  <g transform="translate(306 272) rotate(36) scale(-1 1)"><polygon points="0,0 18,-8 38,44 22,54 -4,18" fill="#2db8c9" /><polygon points="20,42 38,36 58,90 36,102 18,60" fill="#53c5d3" /><polygon points="48,88 62,84 72,100 58,112 42,106" fill="#f1c6a5" /></g>
  <polygon points="238,214 282,214 286,248 238,248" fill="#deb698" />
  <g transform="translate(260 160) rotate(2)"><polygon points="-48,-22 -26,-58 18,-62 48,-26 42,26 6,60 -34,48 -54,8" fill="#f1c6a5" /><polygon points="-44,-12 -22,-50 0,-48 -2,52 -34,46 -50,10" fill="#deb698" /><polygon points="0,-48 18,-62 48,-26 42,26 6,60 -2,52" fill="#f2ccae" /><polygon points="-58,-8 -34,-54 8,-70 46,-50 58,-6 24,2 -8,14" fill="#2f8da3" /><polygon points="0,-68 34,-48 18,-10 0,-4" fill="#90f4ff" /><circle cx="-16" cy="-2" r="4.2" fill="#1b2742" /><circle cx="18" cy="-2" r="4.2" fill="#1b2742" /><polygon points="2,10 10,22 -4,24" fill="#c6a287" /><polygon points="-10,34 12,32 6,40 -6,40" fill="#b7967d" /></g>
</svg>
