<?xml version="1.0" encoding="UTF-8"?>
<svg xmlns="http://www.w3.org/2000/svg" viewBox="0 0 520 640" role="img" aria-labelledby="dead-title dead-desc">
  <title id="dead-title">DEAD low poly persona</title>
  <desc id="dead-desc">A playful low poly flat vector character for the DEAD personality.</desc>
  <ellipse cx="260" cy="574" rx="108" ry="22" fill="#cfd5df" opacity="0.72" />
  <ellipse cx="260" cy="574" rx="78" ry="14" fill="#b8c1cd" opacity="0.45" />
  <path d="M384 194a34 34 0 1 0 0 68a28 28 0 1 1 0-68Z" fill="#d0deef" opacity="0.78" /><rect x="120" y="402" width="62" height="14" fill="#ced6e2" rx="7" opacity="0.52" /><rect x="120" y="402" width="22" height="14" fill="#c6d7eb" rx="7" /><rect x="182" y="406" width="6" height="6" fill="#ced6e2" rx="2" />
  <g transform="translate(238 374) rotate(2) scale(1 1)"><polygon points="0,0 24,-2 28,64 10,114 -8,112 -12,58" fill="#46556d" /><polygon points="10,58 28,56 30,114 14,122 6,90" fill="#606d81" /><polygon points="2,114 32,112 46,124 26,136 -4,132" fill="#d9e0ea" /></g>
  <g transform="translate(282 374) rotate(-3) scale(-1 1)"><polygon points="0,0 24,-2 28,64 10,114 -8,112 -12,58" fill="#46556d" /><polygon points="10,58 28,56 30,114 14,122 6,90" fill="#606d81" /><polygon points="2,114 32,112 46,124 26,136 -4,132" fill="#d9e0ea" /></g>
  <g transform="translate(214 280) rotate(12) scale(1 1)"><polygon points="0,0 18,-8 38,44 22,54 -4,18" fill="#8ca2bd" /><polygon points="20,42 38,36 58,90 36,102 18,60" fill="#a1b3c9" /><polygon points="48,88 62,84 72,100 58,112 42,106" fill="#deb798" /></g>
  <g transform="translate(260 286) rotate(-1)"><polygon points="-62,-52 44,-58 70,18 24,112 -52,80 -72,14" fill="#8ca2bd" /><polygon points="-62,-52 -8,-58 8,86 -52,80 -72,14" fill="#788ba3" /><polygon points="-10,-58 44,-58 70,18 24,112 8,86" fill="#a1b3c9" /><polygon points="-26,-56 0,-72 28,-56 14,-24 -12,-24" fill="#788ba3" /><polygon points="-10,-24 10,-24 20,12 -18,12" fill="#becee2" /><polygon points="-18,-62 18,-62 12,-46 -10,-46" fill="#6e8096" /></g>
  <g transform="translate(306 280) rotate(-8) scale(-1 1)"><polygon points="0,0 18,-8 38,44 22,54 -4,18" fill="#8ca2bd" /><polygon points="20,42 38,36 58,90 36,102 18,60" fill="#a1b3c9" /><polygon points="48,88 62,84 72,100 58,112 42,106" fill="#f1c7a5" /></g>
  <polygon points="238,214 282,214 286,248 238,248" fill="#deb798" />
  <g transform="translate(260 160) rotate(-1)"><polygon points="-70,-10 -46,-78 6,-96 58,-72 76,-4 44,54 -32,62" fill="#869cb5" /><polygon points="0,-92 56,-72 72,-4 40,52 4,8" fill="#9cafc6" /></g><g transform="translate(260 160) rotate(-1)"><polygon points="-48,-22 -26,-58 18,-62 48,-26 42,26 6,60 -34,48 -54,8" fill="#f1c7a5" /><polygon points="-44,-12 -22,-50 0,-48 -2,52 -34,46 -50,10" fill="#deb798" /><polygon points="0,-48 18,-62 48,-26 42,26 6,60 -2,52" fill="#f2cdae" /><polygon points="-54,-4 -24,-64 20,-70 52,-26 54,10 22,-4 -8,8" fill="#607999" /><polygon points="4,-68 34,-44 18,-8 0,-4" fill="#9ab1cc" /><circle cx="-16" cy="-2" r="4.2" fill="#1b2742" /><circle cx="18" cy="-2" r="4.2" fill="#1b2742" /><polygon points="2,10 10,22 -4,24" fill="#c6a387" /><polygon points="-10,34 12,32 6,40 -6,40" fill="#b7977d" /></g>
</svg>
