<?xml version="1.0" encoding="UTF-8"?>
<svg xmlns="http://www.w3.org/2000/svg" viewBox="0 0 520 640" role="img" aria-labelledby="fake-title fake-desc">
  <title id="fake-title">FAKE low poly persona</title>
  <desc id="fake-desc">A playful low poly flat vector character for the FAKE personality.</desc>
  <ellipse cx="260" cy="574" rx="108" ry="22" fill="#cfd5df" opacity="0.72" />
  <ellipse cx="260" cy="574" rx="78" ry="14" fill="#b8c1cd" opacity="0.45" />
  <polygon points="392,238 408,268 442,274 416,294 422,326 392,310 362,326 368,294 342,274 376,268" fill="#cfabff" /><polygon points="124,252 136,274 160,278 142,292 146,314 124,302 102,314 106,292 88,278 112,274" fill="#c499ff" />
  <g transform="translate(238 374) rotate(-18) scale(1 1)"><polygon points="0,0 24,-2 28,64 10,114 -8,112 -12,58" fill="#5c4a82" /><polygon points="10,58 28,56 30,114 14,122 6,90" fill="#736394" /><polygon points="2,114 32,112 46,124 26,136 -4,132" fill="#ebe3f6" /></g>
  <g transform="translate(280 370) rotate(24) scale(-1 1)"><polygon points="0,0 24,-2 28,64 10,114 -8,112 -12,58" fill="#5c4a82" /><polygon points="10,58 28,56 30,114 14,122 6,90" fill="#736394" /><polygon points="2,114 32,112 46,124 26,136 -4,132" fill="#ebe3f6" /></g>
  <g transform="translate(214 276) rotate(-26) scale(1 1)"><polygon points="0,0 18,-8 38,44 22,54 -4,18" fill="#ff6bbb" /><polygon points="20,42 38,36 58,90 36,102 18,60" fill="#ff86c7" /><polygon points="48,88 62,84 72,100 58,112 42,106" fill="#e0b69f" /></g>
  <g transform="translate(260 286) rotate(-12)"><polygon points="-62,-52 44,-58 70,18 24,112 -52,80 -72,14" fill="#ff6bbb" /><polygon points="-62,-52 -8,-58 8,86 -52,80 -72,14" fill="#db5ca1" /><polygon points="-10,-58 44,-58 70,18 24,112 8,86" fill="#ff86c7" /><polygon points="-28,-26 18,-42 34,8 -18,22" fill="#bc93f5" /><polygon points="-18,-62 18,-62 12,-46 -10,-46" fill="#c95594" /></g>
  <g transform="translate(308 264) rotate(-52) scale(-1 1)"><polygon points="0,0 18,-8 38,44 22,54 -4,18" fill="#ff6bbb" /><polygon points="20,42 38,36 58,90 36,102 18,60" fill="#ff86c7" /><polygon points="48,88 62,84 72,100 58,112 42,106" fill="#f4c6ad" /></g>
  <polygon points="238,214 282,214 286,248 238,248" fill="#e0b69f" />
  <g transform="translate(260 160) rotate(-10)"><polygon points="-48,-22 -26,-58 18,-62 48,-26 42,26 6,60 -34,48 -54,8" fill="#f4c6ad" /><polygon points="-44,-12 -22,-50 0,-48 -2,52 -34,46 -50,10" fill="#e0b69f" /><polygon points="0,-48 18,-62 48,-26 42,26 6,60 -2,52" fill="#f5ccb5" /><polygon points="-56,2 -38,-34 -12,-72 18,-54 48,-72 60,-14 18,-6 -8,14" fill="#8549c9" /><polygon points="-10,-68 28,-52 18,-8 -2,-6" fill="#ff7ac9" /><circle cx="-16" cy="-2" r="4.2" fill="#1b2742" /><circle cx="18" cy="-2" r="4.2" fill="#1b2742" /><polygon points="2,10 10,22 -4,24" fill="#c8a28e" /><polygon points="-10,34 12,32 6,40 -6,40" fill="#b99683" /></g>
</svg>
