<?xml version="1.0" encoding="UTF-8"?>
<svg xmlns="http://www.w3.org/2000/svg" viewBox="0 0 520 640" role="img" aria-labelledby="glaze-title glaze-desc">
  <title id="glaze-title">GLAZE low poly persona</title>
  <desc id="glaze-desc">A playful low poly flat vector character for the GLAZE personality.</desc>
  <ellipse cx="260" cy="574" rx="108" ry="22" fill="#cfd5df" opacity="0.72" />
  <ellipse cx="260" cy="574" rx="78" ry="14" fill="#b8c1cd" opacity="0.45" />
  <circle cx="392" cy="286" r="42" fill="#ffe196" opacity="0.24" /><circle cx="392" cy="286" r="28" fill="#ffda7f" opacity="0.88" /><polygon points="386,322 398,322 404,344 380,344" fill="#ffe196" />
  <g transform="translate(238 372) rotate(-4) scale(1 1)"><polygon points="0,0 24,-2 28,64 10,114 -8,112 -12,58" fill="#40547d" /><polygon points="10,58 28,56 30,114 14,122 6,90" fill="#5b6c8f" /><polygon points="2,114 32,112 46,124 26,136 -4,132" fill="#e7edf6" /></g>
  <g transform="translate(282 374) rotate(8) scale(-1 1)"><polygon points="0,0 24,-2 28,64 10,114 -8,112 -12,58" fill="#40547d" /><polygon points="10,58 28,56 30,114 14,122 6,90" fill="#5b6c8f" /><polygon points="2,114 32,112 46,124 26,136 -4,132" fill="#e7edf6" /></g>
  <g transform="translate(212 274) rotate(-18) scale(1 1)"><polygon points="0,0 18,-8 38,44 22,54 -4,18" fill="#7c88ff" /><polygon points="20,42 38,36 58,90 36,102 18,60" fill="#949dff" /><polygon points="48,88 62,84 72,100 58,112 42,106" fill="#dfb89c" /></g>
  <g transform="translate(260 286) rotate(-4)"><polygon points="-62,-52 44,-58 70,18 24,112 -52,80 -72,14" fill="#7c88ff" /><polygon points="-62,-52 -8,-58 8,86 -52,80 -72,14" fill="#6b75db" /><polygon points="-10,-58 44,-58 70,18 24,112 8,86" fill="#949dff" /><polygon points="-28,-26 18,-42 34,8 -18,22" fill="#f5d17a" /><polygon points="-18,-62 18,-62 12,-46 -10,-46" fill="#626cc9" /></g>
  <g transform="translate(308 272) rotate(38) scale(-1 1)"><polygon points="0,0 18,-8 38,44 22,54 -4,18" fill="#7c88ff" /><polygon points="20,42 38,36 58,90 36,102 18,60" fill="#949dff" /><polygon points="48,88 62,84 72,100 58,112 42,106" fill="#f2c8aa" /></g>
  <polygon points="238,214 282,214 286,248 238,248" fill="#dfb89c" />
  <g transform="translate(260 160) rotate(-2)"><polygon points="-48,-22 -26,-58 18,-62 48,-26 42,26 6,60 -34,48 -54,8" fill="#f2c8aa" /><polygon points="-44,-12 -22,-50 0,-48 -2,52 -34,46 -50,10" fill="#dfb89c" /><polygon points="0,-48 18,-62 48,-26 42,26 6,60 -2,52" fill="#f3ceb3" /><polygon points="-56,-6 -36,-52 0,-70 40,-56 56,-4 32,22 -18,24" fill="#7189d9" /><polygon points="0,-68 34,-56 28,-14 0,6" fill="#b1bdff" /><circle cx="-16" cy="-2" r="4.2" fill="#1b2742" /><circle cx="18" cy="-2" r="4.2" fill="#1b2742" /><polygon points="2,10 10,22 -4,24" fill="#c6a48b" /><polygon points="-10,34 12,32 6,40 -6,40" fill="#b89881" /></g>
</svg>
