<?xml version="1.0" encoding="UTF-8"?>
<svg xmlns="http://www.w3.org/2000/svg" viewBox="0 0 520 640" role="img" aria-labelledby="late-title late-desc">
  <title id="late-title">LATE low poly persona</title>
  <desc id="late-desc">A playful low poly flat vector character for the LATE personality.</desc>
  <ellipse cx="260" cy="574" rx="108" ry="22" fill="#cfd5df" opacity="0.72" />
  <ellipse cx="260" cy="574" rx="78" ry="14" fill="#b8c1cd" opacity="0.45" />
  <polygon points="396,222 410,250 442,254 418,276 424,306 396,292 370,306 374,276 350,254 382,250" fill="#ffb7c8" /><polygon points="156,492 170,516 192,518 174,532 178,556 156,544 134,556 138,532 120,518 142,516" fill="#ffc4d2" />
  <g transform="translate(236 376) rotate(-24) scale(1 1)"><polygon points="0,0 24,-2 28,64 10,114 -8,112 -12,58" fill="#6a3740" /><polygon points="10,58 28,56 30,114 14,122 6,90" fill="#7f535b" /><polygon points="2,114 32,112 46,124 26,136 -4,132" fill="#f4e5e1" /></g>
  <g transform="translate(280 370) rotate(28) scale(-1 1)"><polygon points="0,0 24,-2 28,64 10,114 -8,112 -12,58" fill="#6a3740" /><polygon points="10,58 28,56 30,114 14,122 6,90" fill="#7f535b" /><polygon points="2,114 32,112 46,124 26,136 -4,132" fill="#f4e5e1" /></g>
  <g transform="translate(214 278) rotate(-42) scale(1 1)"><polygon points="0,0 18,-8 38,44 22,54 -4,18" fill="#ff6d62" /><polygon points="20,42 38,36 58,90 36,102 18,60" fill="#ff877e" /><polygon points="48,88 62,84 72,100 58,112 42,106" fill="#e0b291" /></g>
  <g transform="translate(260 286) rotate(-16)"><polygon points="-62,-52 44,-58 70,18 24,112 -52,80 -72,14" fill="#ff6d62" /><polygon points="-62,-52 -8,-58 8,86 -52,80 -72,14" fill="#db5e54" /><polygon points="-10,-58 44,-58 70,18 24,112 8,86" fill="#ff877e" /><polygon points="-8,-60 12,-58 8,96 -12,96" fill="#f5b0c0" /><polygon points="-18,-62 18,-62 12,-46 -10,-46" fill="#c9564d" /></g>
  <g transform="translate(306 264) rotate(-72) scale(-1 1)"><polygon points="0,0 18,-8 38,44 22,54 -4,18" fill="#ff6d62" /><polygon points="20,42 38,36 58,90 36,102 18,60" fill="#ff877e" /><polygon points="48,88 62,84 72,100 58,112 42,106" fill="#f4c29e" /></g>
  <polygon points="238,214 282,214 286,248 238,248" fill="#e0b291" />
  <g transform="translate(260 160) rotate(-14)"><polygon points="-48,-22 -26,-58 18,-62 48,-26 42,26 6,60 -34,48 -54,8" fill="#f4c29e" /><polygon points="-44,-12 -22,-50 0,-48 -2,52 -34,46 -50,10" fill="#e0b291" /><polygon points="0,-48 18,-62 48,-26 42,26 6,60 -2,52" fill="#f5c8a8" /><polygon points="-56,4 -34,-30 -8,-74 18,-50 48,-74 62,-8 22,-8 -2,14" fill="#b84b56" /><polygon points="-6,-70 24,-48 14,-12 -8,-10" fill="#ff8c8f" /><circle cx="-16" cy="-2" r="4.2" fill="#1b2742" /><circle cx="18" cy="-2" r="4.2" fill="#1b2742" /><polygon points="2,10 10,22 -4,24" fill="#c89f82" /><polygon points="-10,34 12,32 6,40 -6,40" fill="#b99378" /></g>
</svg>
