<?xml version="1.0" encoding="UTF-8"?>
<svg xmlns="http://www.w3.org/2000/svg" viewBox="0 0 520 640" role="img" aria-labelledby="nope-title nope-desc">
  <title id="nope-title">NOPE low poly persona</title>
  <desc id="nope-desc">A playful low poly flat vector character for the NOPE personality.</desc>
  <ellipse cx="260" cy="574" rx="108" ry="22" fill="#cfd5df" opacity="0.72" />
  <ellipse cx="260" cy="574" rx="78" ry="14" fill="#b8c1cd" opacity="0.45" />
  <rect x="382" y="248" width="78" height="58" fill="#ffffff" rx="18" opacity="0.82" /><rect x="396" y="270" width="18" height="8" fill="#e5f6ff" rx="4" /><rect x="418" y="270" width="18" height="8" fill="#dff4ff" rx="4" /><rect x="440" y="270" width="8" height="8" fill="#e5f6ff" rx="4" />
  <g transform="translate(238 374) rotate(6) scale(1 1)"><polygon points="0,0 24,-2 28,64 10,114 -8,112 -12,58" fill="#536983" /><polygon points="10,58 28,56 30,114 14,122 6,90" fill="#6b7e94" /><polygon points="2,114 32,112 46,124 26,136 -4,132" fill="#dfe7f2" /></g>
  <g transform="translate(282 376) rotate(-2) scale(-1 1)"><polygon points="0,0 24,-2 28,64 10,114 -8,112 -12,58" fill="#536983" /><polygon points="10,58 28,56 30,114 14,122 6,90" fill="#6b7e94" /><polygon points="2,114 32,112 46,124 26,136 -4,132" fill="#dfe7f2" /></g>
  <g transform="translate(216 278) rotate(44) scale(1 1)"><polygon points="0,0 18,-8 38,44 22,54 -4,18" fill="#89b7d6" /><polygon points="20,42 38,36 58,90 36,102 18,60" fill="#9ec4dd" /><polygon points="48,88 62,84 72,100 58,112 42,106" fill="#deb797" /></g>
  <g transform="translate(260 286) rotate(3)"><polygon points="-62,-52 44,-58 70,18 24,112 -52,80 -72,14" fill="#89b7d6" /><polygon points="-62,-52 -8,-58 8,86 -52,80 -72,14" fill="#769db8" /><polygon points="-10,-58 44,-58 70,18 24,112 8,86" fill="#9ec4dd" /><polygon points="-26,-56 0,-72 28,-56 14,-24 -12,-24" fill="#769db8" /><polygon points="-10,-24 10,-24 20,12 -18,12" fill="#d6eaf5" /><polygon points="-18,-62 18,-62 12,-46 -10,-46" fill="#6d90a9" /></g>
  <g transform="translate(304 278) rotate(-42) scale(-1 1)"><polygon points="0,0 18,-8 38,44 22,54 -4,18" fill="#89b7d6" /><polygon points="20,42 38,36 58,90 36,102 18,60" fill="#9ec4dd" /><polygon points="48,88 62,84 72,100 58,112 42,106" fill="#f1c7a4" /></g>
  <polygon points="238,214 282,214 286,248 238,248" fill="#deb797" />
  <g transform="translate(260 160) rotate(1)"><polygon points="-70,-10 -46,-78 6,-96 58,-72 76,-4 44,54 -32,62" fill="#84b0cd" /><polygon points="0,-92 56,-72 72,-4 40,52 4,8" fill="#9ac1dc" /></g><g transform="translate(260 160) rotate(1)"><polygon points="-48,-22 -26,-58 18,-62 48,-26 42,26 6,60 -34,48 -54,8" fill="#f1c7a4" /><polygon points="-44,-12 -22,-50 0,-48 -2,52 -34,46 -50,10" fill="#deb797" /><polygon points="0,-48 18,-62 48,-26 42,26 6,60 -2,52" fill="#f2cdad" /><polygon points="-54,-4 -24,-64 20,-70 52,-26 54,10 22,-4 -8,8" fill="#6585a8" /><polygon points="4,-68 34,-44 18,-8 0,-4" fill="#9cc8f8" /><circle cx="-16" cy="-2" r="4.2" fill="#1b2742" /><circle cx="18" cy="-2" r="4.2" fill="#1b2742" /><polygon points="2,10 10,22 -4,24" fill="#c6a386" /><polygon points="-10,34 12,32 6,40 -6,40" fill="#b7977d" /></g>
</svg>
