<?xml version="1.0" encoding="UTF-8"?>
<svg xmlns="http://www.w3.org/2000/svg" viewBox="0 0 520 640" role="img" aria-labelledby="yap-title yap-desc">
  <title id="yap-title">YAP low poly persona</title>
  <desc id="yap-desc">A playful low poly flat vector character for the YAP personality.</desc>
  <ellipse cx="260" cy="574" rx="108" ry="22" fill="#cfd5df" opacity="0.72" />
  <ellipse cx="260" cy="574" rx="78" ry="14" fill="#b8c1cd" opacity="0.45" />
  <rect x="104" y="340" width="90" height="64" fill="#392b5f" rx="20" opacity="0.9" /><circle cx="130" cy="372" r="14" fill="#ff8fdd" /><circle cx="168" cy="372" r="14" fill="#ff76d5" /><rect x="138" y="350" width="22" height="8" fill="#ffffff" rx="4" opacity="0.72" /><rect x="366" y="210" width="12" height="56" fill="#ff76d5" rx="6" /><rect x="386" y="198" width="12" height="68" fill="#ff8fdd" rx="6" /><rect x="406" y="220" width="12" height="46" fill="#ff76d5" rx="6" />
  <g transform="translate(236 376) rotate(-14) scale(1 1)"><polygon points="0,0 24,-2 28,64 10,114 -8,112 -12,58" fill="#473677" /><polygon points="10,58 28,56 30,114 14,122 6,90" fill="#61528a" /><polygon points="2,114 32,112 46,124 26,136 -4,132" fill="#ebe4f6" /></g>
  <g transform="translate(280 370) rotate(16) scale(-1 1)"><polygon points="0,0 24,-2 28,64 10,114 -8,112 -12,58" fill="#473677" /><polygon points="10,58 28,56 30,114 14,122 6,90" fill="#61528a" /><polygon points="2,114 32,112 46,124 26,136 -4,132" fill="#ebe4f6" /></g>
  <g transform="translate(210 280) rotate(40) scale(1 1)"><polygon points="0,0 18,-8 38,44 22,54 -4,18" fill="#9460ff" /><polygon points="20,42 38,36 58,90 36,102 18,60" fill="#a77dff" /><polygon points="48,88 62,84 72,100 58,112 42,106" fill="#dfb297" /></g>
  <g transform="translate(260 286) rotate(-10)"><polygon points="-62,-52 44,-58 70,18 24,112 -52,80 -72,14" fill="#9460ff" /><polygon points="-62,-52 -8,-58 8,86 -52,80 -72,14" fill="#7f53db" /><polygon points="-10,-58 44,-58 70,18 24,112 8,86" fill="#a77dff" /><polygon points="-26,-56 0,-72 28,-56 14,-24 -12,-24" fill="#7f53db" /><polygon points="-10,-24 10,-24 20,12 -18,12" fill="#f571cc" /><polygon points="-18,-62 18,-62 12,-46 -10,-46" fill="#754cc9" /></g>
  <g transform="translate(310 264) rotate(-86) scale(-1 1)"><polygon points="0,0 18,-8 38,44 22,54 -4,18" fill="#9460ff" /><polygon points="20,42 38,36 58,90 36,102 18,60" fill="#a77dff" /><polygon points="48,88 62,84 72,100 58,112 42,106" fill="#f2c2a4" /></g>
  <polygon points="238,214 282,214 286,248 238,248" fill="#dfb297" />
  <g transform="translate(260 160) rotate(-8)"><polygon points="-48,-22 -26,-58 18,-62 48,-26 42,26 6,60 -34,48 -54,8" fill="#f2c2a4" /><polygon points="-44,-12 -22,-50 0,-48 -2,52 -34,46 -50,10" fill="#dfb297" /><polygon points="0,-48 18,-62 48,-26 42,26 6,60 -2,52" fill="#f3c8ad" /><polygon points="-60,-4 -34,-34 -8,-72 24,-54 56,-72 62,-8 24,0 -10,18" fill="#6643bf" /><polygon points="4,-70 36,-50 16,-8 -2,-4" fill="#ff74cb" /><circle cx="-16" cy="-2" r="4.2" fill="#1b2742" /><circle cx="18" cy="-2" r="4.2" fill="#1b2742" /><polygon points="2,10 10,22 -4,24" fill="#c69f86" /><polygon points="-10,34 12,32 6,40 -6,40" fill="#b8937d" /></g>
</svg>
